<?xml version="1.0" standalone="no"?>
<!DOCTYPE svg PUBLIC "-//W3C//DTD SVG 20010904//EN"
 "http://www.w3.org/TR/2001/REC-SVG-20010904/DTD/svg10.dtd">
<svg version="1.0" xmlns="http://www.w3.org/2000/svg"
 width="600.000000pt" height="600.000000pt" viewBox="0 0 600.000000 600.000000"
 preserveAspectRatio="xMidYMid meet">
<metadata>
Created by potrace 1.14, written by Peter Selinger 2001-2017
</metadata>
<g transform="translate(0.000000,600.000000) scale(0.100000,-0.100000)"
fill="#000000" stroke="none">
<path d="M2585 5553 c-59 -8 -582 -123 -677 -149 -97 -26 -246 -94 -299 -137
-15 -12 -42 -33 -59 -47 -18 -13 -130 -120 -248 -236 -199 -194 -215 -213
-214 -244 1 -47 20 -77 53 -89 32 -11 42 -10 182 25 56 14 111 27 121 29 10 3
53 13 95 24 42 11 87 22 101 25 14 2 115 27 225 55 726 182 694 175 800 175
195 1 280 -47 510 -289 88 -93 178 -188 200 -211 22 -23 103 -108 180 -189 77
-82 163 -172 190 -200 28 -29 111 -117 185 -195 275 -291 273 -290 328 -290
16 0 44 10 63 23 30 20 38 36 68 132 29 93 34 125 34 210 1 170 -47 272 -210
441 -49 50 -155 162 -238 249 -82 87 -172 182 -200 210 -27 29 -115 121 -195
206 -198 208 -236 245 -310 300 -87 63 -207 118 -329 151 -73 19 -280 31 -356
21z"/>
<path d="M3554 5508 c-26 -12 -44 -44 -48 -82 -4 -30 21 -59 209 -251 44 -45
189 -194 321 -331 133 -137 288 -296 344 -354 177 -183 216 -242 243 -377 19
-93 12 -179 -24 -298 -17 -55 -41 -136 -54 -180 -13 -44 -65 -215 -115 -380
-50 -165 -100 -329 -110 -365 -10 -36 -54 -185 -99 -332 -45 -146 -81 -275
-81 -287 0 -52 37 -92 97 -105 44 -10 245 44 320 85 80 46 173 142 212 220 30
63 400 1274 425 1396 20 95 18 273 -4 375 -46 211 -113 325 -330 558 -53 58
-121 132 -151 165 -244 270 -361 349 -629 425 -80 22 -163 45 -185 52 -22 6
-44 12 -50 14 -5 1 -62 16 -126 33 -126 34 -134 35 -165 19z"/>
<path d="M2530 4792 c-14 -2 -119 -26 -235 -53 -115 -27 -221 -52 -235 -55
-28 -5 -175 -40 -235 -56 -22 -5 -51 -12 -65 -15 -14 -2 -59 -13 -100 -23 -41
-10 -86 -21 -100 -24 -66 -12 -304 -71 -380 -93 -280 -83 -511 -288 -616 -548
-44 -108 -224 -679 -232 -735 -9 -62 -9 -276 1 -324 10 -52 47 -198 108 -423
49 -184 66 -221 106 -224 7 -1 19 -2 26 -3 19 -3 65 22 76 42 5 9 32 96 60
192 28 96 87 299 131 450 44 151 83 285 86 298 2 12 15 57 28 100 14 42 39
129 56 192 45 162 88 247 163 323 34 35 87 77 117 94 77 44 94 49 865 228 55
13 181 42 280 65 99 24 236 56 305 72 69 16 132 30 140 33 8 2 47 11 87 20 84
19 117 42 133 90 18 55 0 91 -93 183 -94 94 -137 125 -216 157 -75 31 -192 47
-261 37z"/>
<path d="M1650 3824 c-36 -8 -72 -17 -80 -19 -119 -28 -238 -107 -313 -208
-28 -37 -74 -130 -82 -164 -2 -10 -40 -137 -85 -283 -44 -146 -82 -272 -85
-280 -5 -23 -45 -158 -129 -435 -41 -138 -82 -286 -89 -330 -20 -113 -14 -269
14 -380 50 -194 117 -304 328 -531 31 -33 106 -114 166 -179 166 -180 237
-244 325 -291 19 -10 37 -22 40 -25 14 -17 190 -76 390 -130 124 -34 230 -62
235 -63 6 -2 30 -8 53 -15 55 -15 96 -7 122 26 22 28 26 64 9 94 -6 11 -38 49
-72 84 -78 79 -520 535 -606 624 -35 36 -118 122 -185 191 -170 174 -199 215
-235 336 -15 52 -20 90 -17 159 3 85 16 134 245 890 133 439 243 809 245 820
6 34 -20 83 -56 105 -38 23 -50 24 -138 4z"/>
<path d="M5374 3774 c-38 -20 -46 -36 -70 -129 -1 -5 -25 -86 -53 -180 -64
-219 -154 -527 -242 -835 -82 -284 -117 -364 -196 -444 -73 -75 -182 -136
-269 -152 -12 -2 -95 -22 -185 -43 -90 -22 -330 -79 -534 -126 -203 -47 -444
-104 -535 -125 -91 -22 -205 -49 -255 -60 -104 -24 -131 -41 -149 -95 -20 -57
-6 -85 98 -189 134 -134 253 -189 411 -188 70 0 105 7 420 82 94 22 181 43
195 46 14 3 68 16 120 29 52 13 106 26 120 29 14 2 57 12 95 21 39 9 77 18 85
20 40 8 284 67 355 86 118 30 291 119 361 184 6 5 28 26 50 45 46 42 134 144
134 155 0 5 6 16 14 24 33 37 97 188 149 351 30 96 74 233 97 305 59 185 71
244 75 362 3 111 -11 186 -92 498 -79 305 -89 329 -144 339 -15 2 -40 -2 -55
-10z"/>
<path d="M1670 2374 c-40 -29 -47 -43 -81 -163 -66 -240 -25 -412 141 -582 19
-20 103 -107 185 -194 83 -87 175 -184 205 -215 30 -32 114 -119 185 -195 236
-250 359 -371 420 -412 119 -80 241 -130 384 -157 95 -18 292 -14 391 8 41 10
82 19 90 21 8 2 119 26 245 54 127 27 249 57 273 65 23 8 42 13 42 11 0 -11
201 99 253 138 32 24 157 141 277 260 169 166 220 222 220 241 0 43 -19 76
-53 92 -37 18 58 39 -952 -212 -448 -111 -475 -117 -575 -117 -84 -1 -118 4
-169 22 -89 31 -165 82 -241 161 -59 61 -214 224 -450 473 -47 50 -110 116
-140 148 -30 31 -118 124 -195 205 -346 364 -336 355 -385 361 -33 3 -52 0
-70 -13z"/>
</g>
</svg>
